<svg height="24" viewBox="0 0 24 24" width="24" xmlns="http://www.w3.org/2000/svg"><g fill="none" fill-rule="evenodd"><path d="m0 0h24v24h-24z"/><path d="m10.5 15h3c.2761424 0 .5-.2238576.5-.5v-3.5h2.3014579c.2761424 0 .5-.2238576.5-.5 0-.1207176-.0436742-.2373594-.1229592-.3283904l-4.3014579-4.93871091c-.181365-.20823388-.4971973-.23001542-.7054312-.04865042-.0173146.0150805-.0335699.03133578-.0486504.04865042l-4.30145791 4.93871091c-.18136499.2082339-.15958346.5240662.04865043.7054312.09103095.079285.20767273.1229592.32839037.1229592h2.30145791v3.5c0 .2761424.2238576.5.5.5zm-3.5 2h10c.5522847 0 1 .4477153 1 1s-.4477153 1-1 1h-10c-.55228475 0-1-.4477153-1-1s.44771525-1 1-1z" fill="#fff"/></g></svg>