<svg width="20" height="20" fill="none" xmlns="http://www.w3.org/2000/svg"><path fill-rule="evenodd" clip-rule="evenodd" d="M5.5 5.5c.6 0 1-.2 1.3-.5l.6-.8.4-.5c.2-.1.3-.2.7-.2h3c.4 0 .5 0 .7.2l.4.4v.1l.6.8c.3.3.7.5 1.3.5h1.2c.9.2 1.6 1 1.8 1.8V14l-.2.9-1 1-1 .2H4.7l-.9-.2-1-1-.2-1V8.6 7.3c.2-.9 1-1.6 1.8-1.8h1.2zm3-3.5c-.6 0-1.1.2-1.5.5a3 3 0 00-.8.9H6l-.3.5-.3.1H4a3.7 3.7 0 00-3 3V14A3.8 3.8 0 003 17c.5.3 1 .4 1.5.5h11c.5 0 1-.2 1.5-.4.7-.4 1.2-1 1.6-1.6L19 14V8.5 7a3.8 3.8 0 00-3-3h-1.5l-.3-.1-.3-.4a40.5 40.5 0 00-.9-1c-.4-.3-.9-.5-1.5-.5h-3zm3.7 8.3a2.2 2.2 0 11-4.5 0 2.2 2.2 0 014.5 0zm1.5 0a3.7 3.7 0 11-7.5 0 3.7 3.7 0 017.5 0z" fill="#fff"/></svg>