<svg height="20" viewBox="0 0 20 20" width="20" xmlns="http://www.w3.org/2000/svg"><g fill="none" fill-rule="evenodd"><rect height="20" opacity=".4" rx="3" width="20"/><g fill="#fff" fill-rule="nonzero"><path d="m12.4696699 6.46966991-5.99999999 5.99999999c-.29289321.2928932-.29289321.767767 0 1.0606602.29289322.2928932.76776696.2928932 1.06066018 0l6.00000001-6.00000001c.2928932-.29289322.2928932-.76776696 0-1.06066018-.2928932-.29289321-.767767-.29289321-1.0606602 0z"/><path d="m6.46966991 7.53033009 5.99999999 6.00000001c.2928932.2928932.767767.2928932 1.0606602 0s.2928932-.767767 0-1.0606602l-6.00000001-5.99999999c-.29289322-.29289321-.76776696-.29289321-1.06066018 0-.29289321.29289322-.29289321.76776696 0 1.06066018z"/></g></g></svg>