<svg height="32" viewBox="0 0 32 32" width="32" xmlns="http://www.w3.org/2000/svg"><path d="m7.30909091 0h17.38181819c4.0366994 0 7.3090909 3.27239146 7.3090909 7.30909091v17.38181819c0 4.0366994-3.2723915 7.3090909-7.3090909 7.3090909h-17.38181819c-4.03669945 0-7.30909091-3.2723915-7.30909091-7.3090909v-17.38181819c0-4.03669945 3.27239146-7.30909091 7.30909091-7.30909091zm-.30909091 16c0 4.968 4.032 9 9 9s9-4.032 9-9-4.032-9-9-9-9 4.032-9 9zm3 0c0-3.3140625 2.6859375-6 6-6s6 2.6859375 6 6-2.6859375 6-6 6-6-2.6859375-6-6z" fill="#fff" fill-rule="evenodd"/></svg>